<svg xmlns="http://www.w3.org/2000/svg" viewBox="0 0 1600 480" preserveAspectRatio="xMidYMid slice" aria-hidden="true">
  <defs>
    <linearGradient id="awPgBase" x1="0" y1="0.25" x2="1" y2="0.75">
      <stop offset="0" stop-color="#f1f8f3"/>
      <stop offset="0.55" stop-color="#a9d1b3"/>
      <stop offset="1" stop-color="#529961"/>
    </linearGradient>
    <radialGradient id="awPgBlob" cx="0.18" cy="0.42" r="0.55">
      <stop offset="0" stop-color="#ffffff" stop-opacity="0.95"/>
      <stop offset="0.55" stop-color="#ffffff" stop-opacity="0.55"/>
      <stop offset="1" stop-color="#ffffff" stop-opacity="0"/>
    </radialGradient>
  </defs>

  <rect width="1600" height="480" fill="url(#awPgBase)"/>

  <g>
    <polygon points="60,540 700,-60 920,-60 280,540" fill="#ffffff" opacity="0.55"/>
    <polygon points="280,540 920,-60 1080,-60 440,540" fill="#ffffff" opacity="0.32"/>
    <polygon points="440,540 1080,-60 1220,-60 580,540" fill="#ffffff" opacity="0.18"/>
    <polygon points="580,540 1220,-60 1340,-60 700,540" fill="#3d854f" opacity="0.06"/>
    <polygon points="700,540 1340,-60 1460,-60 820,540" fill="#3d854f" opacity="0.12"/>
    <polygon points="820,540 1460,-60 1580,-60 940,540" fill="#3d854f" opacity="0.18"/>
    <polygon points="940,540 1580,-60 1700,-60 1060,540" fill="#2d6e3f" opacity="0.18"/>
    <polygon points="1060,540 1700,-60 1820,-60 1180,540" fill="#2d6e3f" opacity="0.22"/>
  </g>

  <rect width="1600" height="480" fill="url(#awPgBlob)"/>
</svg>
