<?xml version="1.0" encoding="utf-8"?>
<!DOCTYPE svg PUBLIC "-//W3C//DTD SVG 1.0//EN" "http://www.w3.org/TR/2001/REC-SVG-20010904/DTD/svg10.dtd">
<svg version="1.0" xmlns="http://www.w3.org/2000/svg" width="316px" height="336px" viewBox="0 0 316 336" preserveAspectRatio="xMidYMid meet">
 <g fill="#529961">
  <path d="M0 168.19 l0 -168.19 158 0 158 0 0 15.13 0 15.13 -4.62 0 -4.62 0 0 -7.33 0 -7.33 -148.60 0 -148.60 0 0 153.80 0 153.83 148.06 0.19 c81.42 0.13 148.92 0.13 150.04 0.03 1.08 -0.13 1.98 -0.35 1.98 -0.48 0 -0.38 2.13 -0.35 2.39 0.03 0.10 0.19 1.05 0.32 2.10 0.32 l1.88 0 0 6.53 0 6.53 -158 0 -158 0 0 -168.19z"/>
  <path d="M17.52 169.63 l0 -145.42 140.80 0 140.80 0 0 145.42 0 145.42 -140.80 0 -140.80 0 0 -145.42z m140.51 119.77 c0.45 -0.25 11.75 -11.50 25.17 -25.07 13.38 -13.54 34.24 -34.56 46.32 -46.76 41.12 -41.38 43.83 -44.15 44.47 -45.07 1.47 -2.26 1.40 -4.30 -0.25 -6.79 -0.51 -0.70 -6.75 -7.17 -13.89 -14.37 -11.63 -11.69 -13.09 -13.09 -14.02 -13.09 -0.86 0 -1.85 0.83 -7.87 6.85 -5.86 5.86 -7.01 6.85 -7.80 6.85 -0.83 0 -1.82 -0.86 -6.63 -5.67 -5.48 -5.48 -5.67 -5.73 -5.57 -6.85 0.10 -1.05 1.40 -2.48 14.59 -15.86 7.96 -8.06 14.65 -15 14.88 -15.39 0.57 -0.99 0.51 -1.40 -0.35 -2.26 -0.67 -0.67 -0.92 -0.73 -1.78 -0.48 -0.54 0.16 -5.06 2.36 -10.07 4.91 -6.88 3.57 -9.33 4.65 -10.23 4.65 -1.15 0 -1.56 -0.35 -7.49 -6.28 -6.12 -6.08 -6.31 -6.34 -6.31 -7.58 0 -1.24 0.25 -1.53 6.47 -7.93 3.54 -3.63 6.63 -7.04 6.88 -7.55 0.41 -0.83 0.38 -0.99 -0.38 -2.10 -1.27 -1.82 -28.29 -28.64 -29.12 -28.89 -0.41 -0.13 -1.05 -0.03 -1.59 0.25 -0.48 0.25 -3.76 3.34 -7.26 6.85 -5.86 5.89 -6.47 6.40 -7.49 6.40 -1.02 0 -1.78 -0.67 -10.51 -9.37 -10.38 -10.35 -10.70 -10.58 -13.41 -9.78 -1.53 0.45 -1.66 0.61 -18.32 17.55 -13.76 13.98 -54.95 55.71 -79.45 80.43 -10.07 10.19 -18.73 19.11 -19.21 19.81 -1.34 1.98 -1.47 3.54 -0.38 5.38 1.02 1.72 26.25 27.33 27.68 28.06 0.70 0.38 1.08 0.38 1.78 0.10 0.51 -0.22 3.73 -3.31 7.17 -6.88 8.19 -8.47 6.91 -8.41 14.27 -0.89 4.56 4.65 5.51 5.80 5.57 6.66 0.10 0.96 -0.38 1.53 -6.56 7.87 -3.66 3.76 -6.79 7.14 -6.88 7.52 -0.13 0.38 -0.03 1.02 0.19 1.47 0.22 0.41 4.81 5.29 10.23 10.80 8.41 8.63 9.78 10.16 9.78 10.99 0 0.80 -0.99 1.98 -6.69 7.74 -3.70 3.76 -6.79 7.14 -6.88 7.55 -0.10 0.38 -0.10 1.05 0 1.47 0.13 0.48 6.37 7.01 14.78 15.48 12.77 12.87 14.69 14.65 15.51 14.65 0.83 0 1.91 -0.99 7.80 -7.01 6.37 -6.56 6.91 -7.04 7.96 -7.01 1.05 0 1.69 0.57 9.08 8.15 4.36 4.49 8.54 8.66 9.30 9.27 2.36 1.94 4.33 2.29 6.50 1.21z"/>
  <path d="M148.92 267.36 c-6.08 -6.31 -6.40 -6.85 -4.75 -8.79 0.48 -0.54 19.85 -20.20 43.04 -43.61 47.18 -47.62 42.81 -43.67 45.58 -41.38 1.88 1.53 2.36 1.69 3.25 1.08 1.27 -0.89 1.59 -2.29 1.59 -6.85 l0 -4.24 3.44 -3.44 c4.81 -4.81 4.17 -4.94 11.40 2.33 5.13 5.16 5.70 5.86 5.70 6.82 0 0.96 -0.54 1.62 -4.75 5.96 -4.59 4.75 -38.16 38.77 -65.18 66.07 -7.29 7.36 -17.30 17.49 -22.30 22.55 -8.92 9.01 -9.05 9.14 -10.32 9.14 -1.27 0 -1.47 -0.19 -6.72 -5.64z"/>
  <path d="M110.73 260.54 c-5.51 -5.64 -5.64 -5.83 -5.54 -7.01 0.10 -1.37 2.64 -3.95 70.91 -72.82 27.81 -28.06 30.80 -30.99 31.73 -30.99 0.86 0 1.72 0.73 6.66 5.67 l5.67 5.70 -0.10 1.31 c-0.10 1.47 1.53 -0.25 -31.60 33.19 -8.25 8.31 -27.40 27.65 -42.53 42.94 -25.13 25.39 -27.59 27.78 -28.51 27.78 -0.92 0 -1.69 -0.64 -6.69 -5.77z"/>
  <path d="M104.04 222 c-5.26 -5.38 -5.61 -5.83 -5.61 -6.94 0 -1.15 0.54 -1.75 13.12 -14.56 7.23 -7.33 19.81 -20.07 27.97 -28.32 8.19 -8.22 25.10 -25.32 37.62 -37.97 20.04 -20.29 22.87 -23.03 23.70 -23.03 0.83 0 1.78 0.83 6.79 5.83 5.64 5.64 5.83 5.89 5.73 7.01 -0.10 1.05 -3.50 4.56 -41.51 42.97 -22.78 23 -45.65 46.09 -50.78 51.32 -8.44 8.51 -9.46 9.46 -10.42 9.46 -0.89 0 -1.62 -0.64 -6.63 -5.77z"/>
  <path d="M97.22 183.17 c-5.22 -5.38 -5.51 -5.77 -5.42 -6.82 0.10 -0.99 2.23 -3.28 20.64 -21.88 11.31 -11.47 32.65 -33.07 47.43 -48.07 14.78 -14.97 28.26 -28.64 29.98 -30.36 4.52 -4.52 4.05 -4.62 11.24 2.58 5.10 5.13 5.64 5.73 5.64 6.75 0 0.99 -1.05 2.13 -14.88 16.05 -8.22 8.25 -22.87 23.03 -32.59 32.84 -9.72 9.81 -25.93 26.12 -36 36.25 -17.39 17.46 -18.38 18.38 -19.43 18.35 -1.02 0 -1.59 -0.51 -6.63 -5.70z"/>
  <path d="M59.31 176.38 c-5.67 -5.67 -5.83 -5.89 -5.73 -7.01 0.10 -1.08 1.31 -2.39 14.78 -15.93 8.06 -8.09 26.69 -26.89 41.41 -41.79 49.92 -50.55 45.01 -45.71 46.29 -45.71 1.08 0 1.59 0.45 6.98 5.83 5.32 5.32 5.83 5.93 5.73 6.82 -0.10 1.05 -2.23 3.22 -62.05 63.81 -13.25 13.41 -27.49 27.84 -31.66 32.11 -7.14 7.23 -7.68 7.71 -8.76 7.71 -1.08 0 -1.59 -0.41 -6.98 -5.83z"/>
  <path d="M306.76 53.68 l0 -6.53 4.62 0 4.62 0 0 6.53 0 6.53 -4.62 0 -4.62 0 0 -6.53z"/>
 </g>
 <g fill="#ffffff">
  <path d="M105.54 324.38 l-96.93 -0.10 0 -154.81 0 -154.81 149.56 0 149.56 0 0 7.33 c0 6.31 0.06 7.33 0.48 7.33 0.41 0 0.48 1.24 0.48 9.40 0 8.15 -0.06 9.40 -0.48 9.40 -0.41 0 -0.48 0.83 -0.48 5.57 0 4.75 0.06 5.57 0.48 5.57 0.41 0 0.48 14.94 0.48 132.48 0 120.51 -0.03 132.48 -0.51 132.68 -0.29 0.10 -24.18 0.16 -53.10 0.13 -28.96 -0.06 -96.23 -0.13 -149.53 -0.16z m192.63 -154.75 l0 -144.46 -139.84 0 -139.84 0 0 144.46 0 144.46 139.84 0 139.84 0 0 -144.46z"/>
  <path d="M143.06 278.67 l-9.88 -9.97 -7.20 7.42 c-7.20 7.36 -7.23 7.39 -8.60 7.39 l-1.37 0 -14.05 -14.30 c-12.93 -13.16 -14.05 -14.37 -14.05 -15.35 0 -0.96 0.54 -1.62 4.71 -5.86 2.58 -2.61 5.89 -6.02 7.36 -7.55 l2.64 -2.74 -10.54 -10.67 c-10.03 -10.13 -10.54 -10.70 -10.54 -11.82 0 -1.15 0.41 -1.62 7.20 -8.51 l7.17 -7.26 -0.80 -1.05 c-0.48 -0.57 -3.66 -3.89 -7.14 -7.36 l-6.31 -6.34 -7.14 7.36 c-7.04 7.29 -7.14 7.36 -8.44 7.36 -1.47 0 -0.38 1.02 -21.28 -20.26 l-6.59 -6.75 0 -2.61 0 -2.61 1.98 -2.10 c1.08 -1.18 8.60 -8.79 16.66 -16.95 18.48 -18.60 64.86 -65.59 79.76 -80.75 6.18 -6.31 12.52 -12.71 14.08 -14.24 l2.80 -2.80 2.64 0 2.64 0 9.78 9.78 c5.38 5.38 9.88 9.84 10.03 9.88 0.13 0.06 3.47 -3.12 7.42 -7.07 6.63 -6.63 7.23 -7.17 8.28 -7.17 1.05 0 1.98 0.86 15.23 14.11 13.19 13.19 14.08 14.14 14.08 15.19 0 1.02 -0.61 1.75 -7.29 8.60 l-7.26 7.49 7.71 7.87 7.71 7.87 8.70 -4.46 c7.65 -3.92 8.86 -4.43 10.23 -4.43 l1.56 0 0 1.15 c0 1.08 -0.73 1.91 -14.53 15.77 l-14.53 14.59 7.10 7.33 7.14 7.36 7.10 -7.33 c7.04 -7.26 7.14 -7.33 8.44 -7.33 1.34 0 1.37 0.03 13.32 12.04 6.56 6.59 12.49 12.61 13.12 13.38 l1.18 1.34 0 3.06 0 3.03 -11.53 11.75 c-6.37 6.47 -30.04 30.42 -52.66 53.26 -22.59 22.84 -43.26 43.70 -45.90 46.38 l-4.81 4.84 -2.74 0 -2.74 0 -9.88 -9.94z m65.91 -57.43 c18.67 -18.89 37.84 -38.32 42.59 -43.16 l8.66 -8.82 -7.14 -7.29 -7.14 -7.29 -5.10 5.10 -5.13 5.10 0 4.36 0 4.40 -1.02 0 c-0.80 0 -1.37 -0.35 -2.64 -1.59 l-1.59 -1.59 -44.44 44.92 c-24.43 24.69 -44.44 45.01 -44.44 45.17 0 0.16 3.15 3.57 7.01 7.55 l7.01 7.26 9.72 -9.88 c5.35 -5.42 24.97 -25.32 43.64 -44.21z m-39.18 -5.89 c16.02 -16.21 34.34 -34.72 40.68 -41.12 6.37 -6.40 11.56 -11.79 11.56 -11.95 0 -0.16 -3.19 -3.47 -7.10 -7.39 l-7.10 -7.10 -11.47 11.56 c-43.10 43.48 -93.02 94.04 -93.11 94.29 -0.06 0.19 3.09 3.54 7.01 7.45 l7.14 7.14 11.66 -11.69 c6.40 -6.47 24.72 -24.97 40.74 -41.19z m-1.40 -43.96 c22.23 -22.52 41.89 -42.43 43.67 -44.28 l3.22 -3.34 -7.14 -7.26 -7.17 -7.26 -19.02 19.21 c-10.45 10.58 -27.90 28.16 -38.77 39.12 -26.09 26.34 -46.48 47.08 -46.60 47.46 -0.06 0.16 3.09 3.54 6.98 7.49 l7.10 7.20 8.63 -8.70 c4.75 -4.78 26.82 -27.11 49.09 -49.63z m-9.43 -35.84 c10.64 -10.67 26.15 -26.38 34.53 -34.85 l15.23 -15.39 -7.26 -7.33 -7.29 -7.29 -6.18 6.31 c-13.63 13.86 -77.60 78.65 -87.60 88.72 l-10.67 10.77 1.72 1.82 c0.96 1.02 4.17 4.30 7.10 7.29 l5.38 5.45 17.87 -18.03 c9.84 -9.91 26.57 -26.76 37.17 -37.46z m-70.21 25.96 c12.65 -12.84 53.17 -53.90 71.86 -72.85 5.38 -5.45 9.81 -10.07 9.81 -10.26 0 -0.19 -3.19 -3.60 -7.10 -7.55 l-7.07 -7.23 -32.01 32.46 c-17.62 17.84 -41.16 41.67 -52.34 52.97 l-20.32 20.55 3.12 3.22 c1.72 1.75 4.97 5.10 7.26 7.42 l4.14 4.20 4.97 -5 c2.74 -2.77 10.67 -10.83 17.68 -17.93z"/>
 </g>
 <g fill="#3d854f">
  <path d="M255.09 324.38 l52.62 -0.10 0 -8.76 0 -8.76 2.07 0 2.07 0 0 8.76 c0 8.12 -0.13 9.52 -0.83 8.41 -0.13 -0.25 -0.29 -0.22 -0.48 0.06 -0.22 0.38 -9.14 0.45 -54.19 0.45 l-53.93 0 52.66 -0.06z"/>
  <path d="M153.19 290.74 c-1.88 -0.70 -3.09 -1.82 -11.79 -10.70 l-8.28 -8.47 -6.91 7.07 c-7.14 7.29 -7.26 7.39 -9.62 7.17 -0.99 -0.10 -2.61 -1.62 -15.67 -14.75 -12.01 -12.07 -14.62 -14.88 -14.94 -15.90 -0.70 -2.36 -0.29 -3.03 7.04 -10.48 l6.69 -6.79 -9.81 -10.03 c-5.38 -5.51 -9.94 -10.32 -10.16 -10.70 -0.51 -0.89 -0.51 -2.93 -0.03 -3.82 0.19 -0.38 3.28 -3.70 6.85 -7.36 l6.50 -6.63 -5.51 -5.64 c-3.03 -3.09 -5.67 -5.64 -5.86 -5.70 -0.19 -0.06 -3.15 2.80 -6.53 6.34 -3.41 3.50 -6.56 6.59 -7.04 6.85 -1.11 0.57 -2.90 0.57 -4.01 0 -1.37 -0.70 -26.63 -26.34 -27.62 -28.03 -0.76 -1.31 -0.86 -1.72 -0.73 -3.66 0.10 -1.78 0.29 -2.42 1.05 -3.57 0.54 -0.73 9.21 -9.68 19.27 -19.88 29.50 -29.75 66.32 -67.05 81.48 -82.50 8.51 -8.63 14.62 -14.62 15.42 -15.04 1.56 -0.86 4.14 -0.99 5.93 -0.25 0.80 0.35 4.30 3.60 10.48 9.81 l9.33 9.30 6.59 -6.59 c3.66 -3.60 6.94 -6.72 7.33 -6.91 1.02 -0.51 2.99 -0.41 3.95 0.22 1.15 0.73 26.82 26.31 28.19 28.06 1.18 1.50 1.43 3.34 0.67 4.68 -0.22 0.38 -3.25 3.63 -6.75 7.26 -3.50 3.60 -6.40 6.75 -6.47 6.94 -0.03 0.22 2.80 3.28 6.31 6.79 l6.37 6.37 9.52 -4.87 c10.74 -5.48 12.04 -5.93 13.54 -4.43 0.64 0.64 0.83 1.15 0.83 2.20 -0.03 0.76 -0.19 1.69 -0.41 2.04 -0.22 0.38 -6.91 7.33 -14.88 15.42 -7.96 8.09 -14.56 14.75 -14.65 14.84 -0.06 0.10 2.45 2.74 5.57 5.86 l5.73 5.73 6.85 -6.82 c7.17 -7.14 7.71 -7.52 9.88 -7.04 0.73 0.16 4.27 3.54 13.95 13.28 7.14 7.17 13.35 13.63 13.86 14.33 1.72 2.58 1.91 5.80 0.48 8.25 -0.41 0.70 -5.70 6.24 -11.72 12.33 -6.02 6.08 -20.86 21.02 -32.97 33.19 -12.07 12.20 -32.94 33.22 -46.32 46.76 -13.41 13.57 -24.78 24.85 -25.29 25.13 -1.34 0.67 -4.27 0.83 -5.67 0.32z m9.08 -7.93 c2.64 -2.68 23.32 -23.54 45.90 -46.38 22.62 -22.84 46.29 -46.79 52.66 -53.26 l11.53 -11.75 0 -2.07 c0 -1.98 -0.06 -2.20 -1.18 -3.44 -2.29 -2.68 -25.10 -25.42 -25.48 -25.42 -0.19 0 -3.70 3.44 -7.77 7.65 -4.11 4.20 -7.58 7.65 -7.77 7.65 -0.16 0 -3.89 -3.66 -8.22 -8.12 l-7.93 -8.12 15.10 -15.23 c11.88 -11.98 14.94 -15.19 14.40 -15.29 -0.38 -0.06 -4.62 1.94 -10 4.68 l-9.30 4.81 -8.35 -8.47 c-4.56 -4.68 -8.35 -8.60 -8.41 -8.76 -0.06 -0.16 3.31 -3.79 7.49 -8.09 4.17 -4.30 7.61 -7.90 7.68 -8.06 0.03 -0.13 -6.31 -6.59 -14.11 -14.40 l-14.18 -14.18 -7.80 7.84 -7.80 7.80 -10.42 -10.45 -10.45 -10.45 -1.69 0 -1.69 0 -2.80 2.77 c-1.56 1.56 -7.90 7.96 -14.08 14.27 -14.91 15.16 -61.29 62.15 -79.76 80.75 -19.91 20.10 -18.64 18.70 -18.64 20.71 l0 1.66 6.59 6.75 c15.80 16.09 19.97 20.26 20.32 20.26 0.19 0 3.70 -3.44 7.77 -7.65 4.08 -4.20 7.58 -7.65 7.80 -7.65 0.35 0 12.17 11.75 14.97 14.88 l1.18 1.34 -7.65 7.80 c-4.24 4.30 -7.68 7.90 -7.68 8.03 0 0.10 4.97 5.22 11.02 11.34 l10.99 11.15 -3.12 3.25 c-1.69 1.75 -3.25 3.38 -3.44 3.54 -0.16 0.19 -2.33 2.36 -4.75 4.84 l-4.43 4.52 14.11 14.37 c7.74 7.87 14.27 14.33 14.49 14.33 0.22 0 3.76 -3.44 7.87 -7.65 4.11 -4.20 7.71 -7.65 7.96 -7.65 0.25 0 5 4.59 10.58 10.19 l10.10 10.19 1.78 0 1.78 0 4.81 -4.84z"/>
  <path d="M147.62 268.98 c-4.36 -4.49 -7.96 -8.25 -8.03 -8.38 -0.10 -0.25 89.80 -91.10 90.56 -91.55 0.45 -0.22 0.96 0.13 2.58 1.72 l2.04 2.01 0 -4.43 0 -4.46 5.35 -5.35 c2.93 -2.93 5.54 -5.32 5.83 -5.32 0.67 0 15.96 15.61 15.83 16.15 -0.06 0.22 -9.27 9.68 -20.48 21.02 -11.21 11.37 -35.07 35.52 -53.01 53.71 -17.97 18.16 -32.65 33.03 -32.71 33.03 -0.03 0 -3.63 -3.66 -7.96 -8.15z m17.39 -6.08 c5 -5.06 15 -15.19 22.30 -22.55 24.05 -24.31 60.33 -61.07 65.24 -66.10 l4.81 -4.94 -5.32 -5.42 c-2.93 -2.99 -5.57 -5.61 -5.93 -5.86 -0.54 -0.38 -0.92 -0.10 -4.05 3.03 l-3.47 3.47 0 4.24 c0 2.93 -0.13 4.56 -0.45 5.32 -1.05 2.52 -3.60 2.74 -6.24 0.51 l-1.53 -1.31 -42.21 42.62 c-23.19 23.41 -42.59 43.07 -43.07 43.64 l-0.89 1.05 3.31 3.34 c1.82 1.85 4.30 4.43 5.51 5.73 1.21 1.31 2.36 2.36 2.58 2.36 0.19 0 4.43 -4.11 9.40 -9.14z"/>
  <path d="M109.29 262.04 l-8.09 -8.09 0.67 -0.86 c0.38 -0.48 18.99 -19.37 41.38 -42.02 64.70 -65.40 63.84 -64.54 64.57 -64.54 0.45 0 3.28 2.61 8.47 7.80 l7.77 7.80 -1.08 1.18 c-0.61 0.67 -6.05 6.24 -12.10 12.36 -39.53 40.01 -70.91 71.77 -81.36 82.28 l-12.14 12.17 -8.09 -8.09z m67.18 -56.26 c14.46 -14.62 29.94 -30.29 34.40 -34.82 4.46 -4.52 8.15 -8.38 8.22 -8.60 0.03 -0.22 -2.48 -2.93 -5.61 -6.05 l-5.67 -5.67 -30.74 30.99 c-42.05 42.43 -70.81 71.58 -70.94 71.90 -0.06 0.16 2.45 2.87 5.57 6.05 l5.67 5.80 16.41 -16.50 c9.01 -9.08 28.22 -28.48 42.69 -43.10z"/>
  <path d="M102.60 223.43 c-4.43 -4.49 -8 -8.28 -7.93 -8.44 0.13 -0.38 64.41 -65.56 101.43 -102.80 2.52 -2.52 4.75 -4.52 4.97 -4.46 0.25 0.03 3.98 3.70 8.31 8.09 l7.87 8 -18.89 19.11 c-32.27 32.68 -87.60 88.65 -87.66 88.65 -0.06 0 -3.70 -3.66 -8.09 -8.15z m68.14 -57.24 c22.87 -23.09 41.60 -42.11 41.67 -42.21 0.03 -0.13 -2.55 -2.84 -5.73 -6.02 l-5.83 -5.80 -22.74 23 c-12.52 12.65 -29.43 29.75 -37.62 37.97 -22.74 22.94 -41.09 41.63 -41.09 41.92 0 0.13 2.55 2.84 5.64 6.02 l5.64 5.80 9.27 -9.37 c5.06 -5.13 27.94 -28.26 50.81 -51.32z"/>
  <path d="M98.08 187.02 c-3.25 -3.25 -6.85 -6.98 -8.09 -8.22 l-2.20 -2.33 11.15 -11.21 c12.39 -12.49 78.17 -79.16 88.37 -89.54 3.54 -3.63 6.63 -6.59 6.82 -6.59 0.19 0 3.98 3.63 8.44 8.09 l8.06 8.06 -15.70 15.90 c-8.63 8.73 -24.37 24.66 -35.01 35.33 -10.61 10.70 -27.55 27.78 -37.65 37.94 l-18.35 18.51 -5.83 -5.93z m24.24 -17.46 c10.07 -10.13 26.28 -26.44 36 -36.25 9.72 -9.81 24.40 -24.62 32.65 -32.91 l14.94 -15.07 -5.77 -5.73 c-4.43 -4.46 -5.86 -5.70 -6.24 -5.51 -0.25 0.16 -14.08 14.05 -30.68 30.87 -40.01 40.58 -51.76 52.46 -62.05 62.82 l-8.60 8.66 5.57 5.73 c3.06 3.15 5.61 5.73 5.70 5.73 0.10 0.03 8.41 -8.25 18.48 -18.35z"/>
  <path d="M61.48 181.67 c-2.55 -2.61 -6.24 -6.37 -8.22 -8.38 l-3.57 -3.70 20.77 -21.02 c11.44 -11.56 35.33 -35.74 53.07 -53.74 17.77 -18 32.49 -32.71 32.71 -32.71 0.45 0 16.09 15.80 16.09 16.28 0 0.32 -3.89 4.27 -45.23 46.16 -13.41 13.57 -32.62 33.03 -42.69 43.26 -10.07 10.19 -18.28 18.54 -18.32 18.54 0 0 -2.07 -2.10 -4.62 -4.68z m12.61 -8.12 c4.17 -4.27 18.06 -18.35 30.87 -31.31 12.81 -12.96 32.21 -32.59 43.07 -43.64 l19.81 -20.07 -5.89 -5.89 -5.89 -5.89 -9.30 9.40 c-5.13 5.16 -21.34 21.60 -36.03 36.47 -14.72 14.91 -33.35 33.70 -41.41 41.83 -8.09 8.12 -14.75 14.81 -14.84 14.91 -0.13 0.16 11.50 11.91 11.82 11.91 0.10 0 3.60 -3.47 7.80 -7.71z"/>
 </g>
 <g fill="#529961">
  <path d="M311.13 324.06 c-0.13 -0.10 -0.22 -3.82 -0.22 -8.28 l0 -8.06 -1.59 0 -1.59 0 0 -124.23 0 -124.23 4.14 0 4.14 0 0 132.52 0 132.52 -2.33 0 c-1.31 0 -2.45 -0.10 -2.55 -0.22z"/>
  <path d="M307.72 38.70 l0 -9.40 4.14 0 4.14 0 0 9.40 0 9.40 -4.14 0 -4.14 0 0 -9.40z"/>
 </g>
</svg>